%
M48
M72
T01C0.03150
T02C0.04000
%
T01
X67600Y122524
X97600Y122524
X97600Y112524
X102600Y97524
X97600Y132524
X97600Y142524
X97600Y152524
X97600Y162524
X97600Y172524
X97600Y182524
X97600Y192524
X97600Y202524
X142600Y162524
X147600Y152524
X167600Y152524
X167600Y162524
X167600Y172524
X167600Y182524
X167600Y192524
X167600Y202524
X192600Y167524
X207600Y187524
X167600Y142524
X167600Y132524
X167600Y122524
X167600Y112524
X177600Y97524
X152600Y127524
X162600Y257524
X162600Y272524
X152600Y272524
X142600Y272524
X132600Y272524
X122600Y272524
X112600Y272524
X102600Y272524
X92600Y272524
X47600Y207524
X172600Y272524
X182600Y272524
T02
X57100Y82524
X68100Y82524
X37600Y102524
X37600Y112524
X37600Y122524
X37600Y132524
X37600Y142524
X37600Y152524
X37600Y162524
X37600Y172524
X37600Y182524
X37600Y192524
X37600Y207524
X37600Y217524
X37600Y227524
X37600Y237524
X37600Y247524
X37600Y257524
X37600Y267524
X37600Y277524
X127100Y77524
X138100Y77524
X197100Y77524
X208100Y77524
X227600Y137524
X227600Y147524
X227600Y157524
X227600Y167524
X227600Y177524
X227600Y187524
X227600Y197524
X227600Y207524
X227600Y227524
X227600Y237524
X227600Y247524
X227600Y257524
X227600Y267524
X227600Y277524
M30
